<?xml version="1.0" encoding="UTF-8"?><svg id="_レイヤー_1" xmlns="http://www.w3.org/2000/svg" viewBox="0 0 503.11 134.33"><defs><style>.cls-1{fill:#fff;}</style></defs><g><g><path class="cls-1" d="M129.86,58.3c17.85,0,27.59,6.35,27.59,19.82,0,7.77-3.94,13.14-9.96,16.1,7.77,2.85,12.37,8.54,12.37,17.96,0,11.72-7.66,21.68-27.59,21.68h-27.7V58.3h25.29Zm-9.96,29.89h10.18c8.43,0,12.04-3.29,12.04-8.65s-2.63-8.32-13.69-8.32h-8.54v16.97Zm0,32.74h11.06c9.2,0,13.58-3.5,13.58-9.96,0-7.12-4.71-9.86-15-9.86h-9.64v19.82Z"/><path class="cls-1" d="M186.25,120.93h31.75v12.92h-47.08V58.3h15.33v62.63Z"/><path class="cls-1" d="M252.71,134.84c-16.97,0-28.91-10.29-28.91-33.4v-10.73c0-23.32,11.94-33.4,28.91-33.4s29.02,10.07,29.02,33.4v10.73c0,23.1-11.94,33.4-29.02,33.4Zm-13.58-33.4c0,14.45,4.71,20.48,13.58,20.48s13.69-6.02,13.69-20.48v-10.73c0-14.45-4.82-20.48-13.69-20.48s-13.58,6.02-13.58,20.48v10.73Z"/><path class="cls-1" d="M348.73,94.54v6.9c0,23.1-10.73,33.4-27.81,33.4s-28.91-10.29-28.91-33.4v-9.64c0-24.42,11.94-34.49,28.91-34.49,15.88,0,25.4,8.98,27.7,24.42h-14.67c-1.31-6.9-5.37-11.5-13.03-11.5-8.87,0-13.58,6.02-13.58,20.48v10.73c0,14.45,4.71,20.48,13.58,20.48s12.15-5.37,13.03-14.45h-12.7v-12.92h27.48Z"/></g><g><path class="cls-1" d="M29.86,0V44.02h-5.36L5.49,10.72V44.02H0V0H5.23L24.37,33.62V0h5.49Z"/><path class="cls-1" d="M64.84,0V4.98h-21.06v13.78h19.14v4.98h-19.14v15.31h21.06v4.98h-26.54V0h26.54Z"/><path class="cls-1" d="M96.69,13.72c-1.53-6.89-5.04-9.25-10.46-9.25-6.76,0-10.46,4.21-10.46,15.12v4.85c0,10.91,3.7,15.12,10.46,15.12,5.74,0,9-2.81,10.46-9.25h5.3c-1.4,9.89-7.4,14.23-15.76,14.23-9.76,0-15.95-5.87-15.95-20.1v-4.85c0-14.23,6.19-20.1,15.95-20.1,8.68,0,14.42,4.59,15.82,14.23h-5.36Z"/><path class="cls-1" d="M139.18,0V4.98h-13.4V44.02h-5.49V4.98h-13.4V0h32.29Z"/><path class="cls-1" d="M138.18,44.02L153.5,0h5.1l15.31,44.02h-5.81l-3.38-10.08h-17.36l-3.38,10.08h-5.81Zm10.91-15.06h13.91l-6.95-20.67-6.95,20.67Z"/><path class="cls-1" d="M205.42,44.02l-9.19-18.57h-10.4v18.57h-5.49V0h14.03c10.15,0,16.02,4.21,16.02,12.76,0,6.19-3.06,10.08-8.68,11.74l9.83,19.52h-6.13Zm-11.04-23.54c7.46,0,10.53-2.3,10.53-7.72s-3.06-7.78-10.53-7.78h-8.55v15.5h8.55Z"/><path class="cls-1" d="M223.47,44.02h-5.49V0h5.49V44.02Z"/><path class="cls-1" d="M262.2,0V4.98h-13.4V44.02h-5.49V4.98h-13.4V0h32.29Z"/><path class="cls-1" d="M274.12,44.02h-5.49V0h5.49V44.02Z"/><path class="cls-1" d="M296.51,44.53c-9.76,0-15.95-5.87-15.95-20.1v-4.85c0-14.23,6.19-20.1,15.95-20.1s15.95,5.87,15.95,20.1v4.85c0,14.23-6.19,20.1-15.95,20.1Zm-10.46-20.1c0,10.91,3.7,15.12,10.46,15.12s10.46-4.21,10.46-15.12v-4.85c0-10.91-3.7-15.12-10.46-15.12s-10.46,4.21-10.46,15.12v4.85Z"/><path class="cls-1" d="M348.76,0V44.02h-5.36l-19.01-33.3V44.02h-5.49V0h5.23l19.14,33.62V0h5.49Z"/></g></g><g><path class="cls-1" d="M503.11,80.63l-41.12,49-32.35-75.49L501.54,10.99l1.58,69.64Z"/><path class="cls-1" d="M380.65,36.47L408.07,3.8l21.57,50.33-47.93,28.76-1.05-46.42Z"/></g></svg>