<?xml version="1.0" encoding="UTF-8"?>
<svg id="_レイヤー_1" data-name="レイヤー 1" xmlns="http://www.w3.org/2000/svg" viewBox="0 0 1024 165.68">
  <defs>
    <style>
      .cls-1 {
        fill: #cccaca;
      }

      .cls-2 {
        fill: #202020;
      }

      .cls-3 {
        fill: #ba3651;
      }
    </style>
  </defs>
  <g>
    <path class="cls-3" d="M56.51,163.29l-35.79-58.14h-.38l.5,58.14H0v-88.91h24.49l35.66,58.01h.38l-.5-58.01h20.85v88.91h-24.36Z"/>
    <g>
      <path class="cls-2" d="M97.75,163.29v-88.91h59.77v18.08h-39.05v16.83h36.92v17.2h-36.92v18.46h41.31v18.33h-62.03Z"/>
      <path class="cls-2" d="M234.99,161.72c-5.78,2.64-12.43,3.96-19.97,3.96-6.87,0-13.21-1.13-19.02-3.39-5.82-2.26-10.86-5.46-15.13-9.61s-7.62-9.1-10.05-14.88c-2.43-5.78-3.64-12.14-3.64-19.09s1.23-13.56,3.7-19.34c2.47-5.78,5.88-10.69,10.23-14.75,4.35-4.06,9.46-7.18,15.32-9.36,5.86-2.18,12.18-3.27,18.96-3.27,6.28,0,12.45,1.11,18.52,3.33,6.07,2.22,10.99,5.46,14.76,9.73l-14.57,14.57c-2.01-2.76-4.65-4.81-7.91-6.15-3.27-1.34-6.61-2.01-10.05-2.01-3.77,0-7.22.69-10.36,2.07s-5.84,3.29-8.1,5.71c-2.26,2.43-4.02,5.3-5.27,8.6-1.26,3.31-1.88,6.93-1.88,10.86s.63,7.7,1.88,11.05c1.26,3.35,2.99,6.22,5.21,8.6,2.22,2.39,4.88,4.25,7.97,5.59,3.1,1.34,6.49,2.01,10.17,2.01,4.27,0,7.99-.84,11.18-2.51,3.18-1.67,5.73-3.85,7.66-6.53l14.94,14.06c-3.94,4.52-8.79,8.1-14.57,10.74Z"/>
      <path class="cls-2" d="M299.16,92.72v70.57h-21.47v-70.57h-25.11v-18.33h71.7v18.33h-25.11Z"/>
      <path class="cls-2" d="M384.44,163.29l-6.91-17.45h-34.41l-6.53,17.45h-23.36l37.29-88.91h20.84l36.92,88.91h-23.86ZM360.58,98.12l-11.3,30.51h22.35l-11.05-30.51Z"/>
      <path class="cls-2" d="M462.44,163.29l-19.3-35.29h-7.32v35.29h-20.97v-88.91h33.9c4.27,0,8.43.44,12.49,1.32,4.06.88,7.7,2.37,10.92,4.46,3.22,2.09,5.8,4.86,7.72,8.29,1.92,3.43,2.89,7.7,2.89,12.81,0,6.03-1.63,11.09-4.9,15.19-3.26,4.1-7.79,7.03-13.56,8.79l23.23,38.05h-25.11ZM461.56,101.64c0-2.09-.44-3.79-1.33-5.09-.88-1.3-2.02-2.3-3.41-3.01-1.39-.71-2.94-1.19-4.67-1.44s-3.39-.38-4.98-.38h-11.48v20.72h10.22c1.77,0,3.57-.15,5.43-.44,1.85-.29,3.53-.82,5.05-1.57s2.75-1.84,3.72-3.26c.97-1.42,1.45-3.27,1.45-5.53Z"/>
      <path class="cls-2" d="M496.55,163.29v-88.91h21.6v88.91h-21.6Z"/>
      <path class="cls-2" d="M572.35,92.72v70.57h-21.47v-70.57h-25.11v-18.33h71.7v18.33h-25.11Z"/>
      <path class="cls-2" d="M605.15,163.29v-88.91h21.6v88.91h-21.6Z"/>
      <path class="cls-2" d="M736.02,118.46c0,7.03-1.21,13.46-3.64,19.28-2.43,5.82-5.8,10.8-10.11,14.94-4.31,4.14-9.44,7.35-15.38,9.61-5.95,2.26-12.39,3.39-19.34,3.39s-13.37-1.13-19.28-3.39c-5.9-2.26-11.01-5.46-15.32-9.61-4.31-4.14-7.68-9.12-10.11-14.94-2.43-5.82-3.64-12.24-3.64-19.28s1.21-13.54,3.64-19.28c2.43-5.73,5.8-10.61,10.11-14.63,4.31-4.02,9.42-7.11,15.32-9.29,5.9-2.18,12.33-3.27,19.28-3.27s13.39,1.09,19.34,3.27c5.94,2.18,11.07,5.27,15.38,9.29,4.31,4.02,7.68,8.9,10.11,14.63,2.43,5.73,3.64,12.16,3.64,19.28ZM713.04,118.46c0-3.85-.63-7.45-1.88-10.8-1.26-3.35-2.99-6.22-5.21-8.6-2.22-2.39-4.9-4.27-8.04-5.65-3.14-1.38-6.59-2.07-10.36-2.07s-7.2.69-10.3,2.07c-3.1,1.38-5.78,3.26-8.04,5.65-2.26,2.39-4,5.25-5.21,8.6-1.21,3.35-1.82,6.95-1.82,10.8s.63,7.72,1.88,11.11,2.99,6.3,5.21,8.73c2.22,2.43,4.88,4.33,7.97,5.71,3.1,1.38,6.53,2.07,10.3,2.07s7.2-.69,10.3-2.07c3.1-1.38,5.78-3.28,8.04-5.71,2.26-2.43,4.02-5.34,5.27-8.73s1.88-7.09,1.88-11.11Z"/>
      <path class="cls-2" d="M804.85,163.29l-35.79-58.14h-.38l.5,58.14h-20.84v-88.91h24.49l35.66,58.01h.38l-.5-58.01h20.85v88.91h-24.36Z"/>
    </g>
  </g>
  <g>
    <path class="cls-3" d="M891.95,1.86l-32.7,37.12c-1.77,2.01-2.74,4.59-2.74,7.26v47.99c0,4.22,4.55,6.86,8.21,4.77l58.88-33.64-22.36-61.73c-1.42-3.92-6.52-4.89-9.28-1.76Z"/>
    <path class="cls-1" d="M967.91,163.81l53.35-60.55c1.77-2.01,2.74-4.59,2.74-7.26V17.44c0-4.22-4.55-6.86-8.21-4.77l-92.19,52.68,35.04,96.71c1.42,3.92,6.52,4.89,9.28,1.76Z"/>
  </g>
</svg>