<?xml version="1.0" encoding="UTF-8"?>
<svg id="_レイヤー_1" data-name="レイヤー 1" xmlns="http://www.w3.org/2000/svg" xmlns:xlink="http://www.w3.org/1999/xlink" viewBox="0 0 512 84">
  <defs>
    <style>
      .cls-1 {
        fill: url(#_名称未設定グラデーション_2);
      }

      .cls-1, .cls-2, .cls-3, .cls-4 {
        stroke-width: 0px;
      }

      .cls-2 {
        fill: url(#_名称未設定グラデーション_2-2);
      }

      .cls-3 {
        fill: #202020;
      }

      .cls-4 {
        fill: url(#_名称未設定グラデーション_88);
      }
    </style>
    <linearGradient id="_名称未設定グラデーション_2" data-name="名称未設定グラデーション 2" x1="-2.01" y1="79.3" x2="40.56" y2="36.72" gradientUnits="userSpaceOnUse">
      <stop offset="0" stop-color="#a41e43"/>
      <stop offset="1" stop-color="#ea6da4"/>
    </linearGradient>
    <linearGradient id="_名称未設定グラデーション_88" data-name="名称未設定グラデーション 88" x1="467.04" y1="64.9" x2="518.11" y2="13.83" gradientUnits="userSpaceOnUse">
      <stop offset="0" stop-color="#9e9e9f"/>
      <stop offset="1" stop-color="#dbdcdc"/>
    </linearGradient>
    <linearGradient id="_名称未設定グラデーション_2-2" data-name="名称未設定グラデーション 2" x1="427.19" y1="46.71" x2="461.23" y2="12.67" xlink:href="#_名称未設定グラデーション_2"/>
  </defs>
  <g>
    <polygon class="cls-1" points="37.55 33.71 37.55 82.31 29.31 82.31 10.37 52.23 10.37 82.31 1 82.31 1 33.71 9.17 33.71 28.19 64.21 28.19 33.71 37.55 33.71"/>
    <polygon class="cls-3" points="77.49 33.71 77.49 42.09 57.07 42.09 57.07 53.01 75.38 53.01 75.38 61.32 57.07 61.32 57.07 74 77.49 74 77.49 82.31 47.2 82.31 47.2 33.71 77.49 33.71"/>
    <path class="cls-3" d="m109.82,48.78c-.92-4.58-3.59-7.4-8.38-7.4-5.7,0-8.73,3.87-8.73,13.17v6.9c0,9.02,3.03,13.17,8.73,13.17,4.93,0,7.33-2.47,8.38-7.4h9.37c-1.62,10.92-7.75,15.71-17.75,15.71-10.92,0-18.59-6.62-18.59-21.48v-6.9c0-15,7.68-21.48,18.59-21.48,9.65,0,16.2,5.07,17.82,15.71h-9.44Z"/>
    <polygon class="cls-3" points="159.88 33.71 159.88 42.09 146.5 42.09 146.5 82.31 136.64 82.31 136.64 42.09 123.26 42.09 123.26 33.71 159.88 33.71"/>
    <path class="cls-3" d="m160.17,82.31l16.9-48.6h9.44l16.9,48.6h-10.49l-2.96-9.23h-16.27l-2.96,9.23h-10.56Zm16.13-17.54h10.99l-5.49-17.11-5.49,17.11Z"/>
    <path class="cls-3" d="m234.47,82.31l-8.73-19.09h-7.89v19.09h-9.86v-48.6h17.4c11.2,0,18.17,5,18.17,14.86,0,6.55-3.03,10.85-8.31,13.03l10.07,20.71h-10.85Zm-10-27.4c5.85,0,9.23-1.27,9.23-6.34s-3.38-6.48-9.23-6.48h-6.62v12.82h6.62Z"/>
    <rect class="cls-3" x="252.15" y="33.71" width="9.86" height="48.6"/>
    <polygon class="cls-3" points="304.69 33.71 304.69 42.09 291.31 42.09 291.31 82.31 281.45 82.31 281.45 42.09 268.07 42.09 268.07 33.71 304.69 33.71"/>
    <rect class="cls-3" x="310.75" y="33.71" width="9.86" height="48.6"/>
    <path class="cls-3" d="m348.01,82.94c-10.92,0-18.59-6.62-18.59-21.48v-6.9c0-15,7.68-21.48,18.59-21.48s18.66,6.48,18.66,21.48v6.9c0,14.86-7.68,21.48-18.66,21.48Zm-8.73-21.48c0,9.3,3.03,13.17,8.73,13.17s8.8-3.87,8.8-13.17v-6.9c0-9.3-3.1-13.17-8.8-13.17s-8.73,3.87-8.73,13.17v6.9Z"/>
    <polygon class="cls-3" points="411.33 33.71 411.33 82.31 403.09 82.31 384.14 52.23 384.14 82.31 374.78 82.31 374.78 33.71 382.95 33.71 401.96 64.21 401.96 33.71 411.33 33.71"/>
  </g>
  <g>
    <path class="cls-4" d="m511,50.67l-26.55,31.64-20.89-48.75,46.43-27.86,1.02,44.96Z"/>
    <path class="cls-2" d="m431.93,22.15l17.7-21.09,13.93,32.5-30.95,18.57-.68-29.98Z"/>
  </g>
</svg>