<?xml version="1.0" encoding="utf-8"?>
<!-- Generator: Adobe Illustrator 26.4.1, SVG Export Plug-In . SVG Version: 6.00 Build 0)  -->
<svg version="1.1" id="_レイヤー_1" xmlns="http://www.w3.org/2000/svg" xmlns:xlink="http://www.w3.org/1999/xlink" x="0px"
	 y="0px" viewBox="0 0 1233.8 96.4" style="enable-background:new 0 0 1233.8 96.4;" xml:space="preserve">
<style type="text/css">
	.st0{fill:#FFFFFF;}
</style>
<path class="st0" d="M828.7,0.6c22.2,0,34.3,7.9,34.3,24.7c0,9.7-4.9,16.4-12.4,20c9.7,3.5,15.4,10.6,15.4,22.3
	c0,14.6-9.5,27-34.3,27h-34.5v-94H828.7L828.7,0.6z M816.3,37.8H829c10.5,0,15-4.1,15-10.8s-3.3-10.4-17-10.4h-10.6L816.3,37.8
	L816.3,37.8z M816.3,78.5h13.8c11.4,0,16.9-4.4,16.9-12.4c0-8.9-5.9-12.3-18.7-12.3h-12C816.3,53.9,816.3,78.5,816.3,78.5z"/>
<path class="st0" d="M898.9,78.5h39.5v16.1h-58.6v-94h19.1V78.5z"/>
<path class="st0" d="M981.6,95.9c-21.1,0-36-12.8-36-41.6V40.9c0-29,14.9-41.6,36-41.6s36.1,12.5,36.1,41.6v13.4
	C1017.7,83,1002.8,95.9,981.6,95.9z M964.7,54.3c0,18,5.9,25.5,16.9,25.5s17-7.5,17-25.5V40.9c0-18-6-25.5-17-25.5
	c-11,0-16.9,7.5-16.9,25.5L964.7,54.3L964.7,54.3z"/>
<path class="st0" d="M1101,45.7v8.6c0,28.7-13.4,41.6-34.6,41.6s-36-12.8-36-41.6v-12c0-30.4,14.9-42.9,36-42.9
	c19.8,0,31.6,11.2,34.5,30.4h-18.3c-1.6-8.6-6.7-14.3-16.2-14.3c-11,0-16.9,7.5-16.9,25.5v13.4c0,18,5.9,25.5,16.9,25.5
	s15.1-6.7,16.2-18h-15.8V45.7L1101,45.7L1101,45.7z"/>
<path class="st0" d="M64.7-0.1v95.3H53.1L11.9,23.2v72.1H0V-0.1h11.3l41.5,72.8V-0.1H64.7z"/>
<path class="st0" d="M140.4-0.1v10.8H94.8v29.8h41.5v10.8H94.8v33.2h45.6v10.8H83V-0.1H140.4z"/>
<path class="st0" d="M209.4,29.7c-3.3-14.9-10.9-20-22.7-20c-14.6,0-22.7,9.1-22.7,32.8v10.5c0,23.6,8,32.8,22.7,32.8
	c12.4,0,19.5-6.1,22.7-20h11.5c-3,21.4-16,30.8-34.1,30.8c-21.1,0-34.5-12.7-34.5-43.5V42.4c0-30.8,13.4-43.5,34.5-43.5
	c18.8,0,31.2,9.9,34.3,30.8C221,29.7,209.4,29.7,209.4,29.7z"/>
<path class="st0" d="M301.5-0.1v10.8h-29v84.6h-11.9V10.7h-29V-0.1H301.5z"/>
<path class="st0" d="M299.3,95.3l33.2-95.3h11l33.2,95.3h-12.6l-7.3-21.8h-37.6l-7.3,21.8L299.3,95.3L299.3,95.3z M322.9,62.7h30.1
	L338,17.9L322.9,62.7L322.9,62.7z"/>
<path class="st0" d="M444.9,95.3L425,55.1h-22.5v40.2h-11.9V-0.1H421c22,0,34.7,9.1,34.7,27.6c0,13.4-6.6,21.8-18.8,25.4l21.3,42.3
	H444.9L444.9,95.3z M421,44.3c16.2,0,22.8-5,22.8-16.7s-6.6-16.9-22.8-16.9h-18.5v33.6H421z"/>
<path class="st0" d="M484,95.3h-11.9V-0.1H484V95.3z"/>
<path class="st0" d="M567.9-0.1v10.8h-29v84.6H527V10.7h-29V-0.1H567.9z"/>
<path class="st0" d="M593.7,95.3h-11.9V-0.1h11.9V95.3z"/>
<path class="st0" d="M642.2,96.4c-21.1,0-34.5-12.7-34.5-43.5V42.4c0-30.8,13.4-43.5,34.5-43.5c21.1,0,34.5,12.7,34.5,43.5v10.5
	C676.8,83.7,663.4,96.4,642.2,96.4z M619.6,52.9c0,23.6,8,32.8,22.7,32.8c14.6,0,22.7-9.1,22.7-32.8V42.4c0-23.6-8-32.8-22.7-32.8
	c-14.6,0-22.7,9.1-22.7,32.8C619.6,42.4,619.6,52.9,619.6,52.9z"/>
<path class="st0" d="M755.4-0.1v95.3h-11.6l-41.2-72.1v72.1h-11.9V-0.1h11.3l41.5,72.8V-0.1H755.4z"/>
<path class="st0" d="M1237.8,58.4l-31.9,38l-25.1-58.5l55.8-33.5L1237.8,58.4L1237.8,58.4z"/>
<path class="st0" d="M1142.8,24.2l21.3-25.3l16.7,39l-37.2,22.3L1142.8,24.2L1142.8,24.2z"/>
</svg>
