<?xml version="1.0" encoding="UTF-8"?><svg id="_イヤー_1" xmlns="http://www.w3.org/2000/svg" xmlns:xlink="http://www.w3.org/1999/xlink" viewBox="0 0 727.72 134.09"><defs><style>.cls-1{fill:#3e3a39;}.cls-2{fill:url(#_規グラデーションスウォッチ_1-2);}.cls-3{fill:url(#_規グラデーションスウォッチ_1);}</style><linearGradient id="_規グラデーションスウォッチ_1" x1="642.07" y1="22.04" x2="718.26" y2="91.18" gradientTransform="matrix(1, 0, 0, 1, 0, 0)" gradientUnits="userSpaceOnUse"><stop offset="0" stop-color="#eb6ea5"/><stop offset="1" stop-color="#a51e43"/></linearGradient><linearGradient id="_規グラデーションスウォッチ_1-2" x1="0" y1="67.04" x2="123" y2="67.04" xlink:href="#_規グラデーションスウォッチ_1"/></defs><path class="cls-3" d="M625.59,0V76.62l95.78-57.47c2.66,6.37,13.63,34.68,1.53,67.46-10.83,29.33-33.25,43.59-39.84,47.47-19.16-44.7-38.31-89.39-57.47-134.09Z"/><polygon class="cls-2" points="115.15 0 115.15 115.15 0 0 0 134.09 7.84 134.09 7.84 18.94 123 134.09 123 0 115.15 0"/><g><path class="cls-1" d="M234.41,80.42h-5.85c5.77-5.06,9.16-12.47,9.16-20.2,0-14.79-12.04-26.83-26.83-26.83h-47.44l-.21,.21c-.87,.87-1.74,1.74-2.61,2.61l-.21,.21v94.65l.21,.21c.8,.8,1.6,1.59,2.4,2.39l.42,.42h70.95c14.8,0,26.84-11.99,26.84-26.72s-12.04-26.95-26.84-26.95Zm-67.34-40.38h43.83c11.13,0,20.19,9.06,20.19,20.19s-9.06,20.2-20.19,20.2h-43.83V40.04Zm67.34,87.42h-67.34v-40.28h67.34c11.14,0,20.2,9.06,20.2,20.2s-9.06,20.08-20.2,20.08Z"/><path class="cls-1" d="M277.98,83.86V33.39h-6.63v50.46c0,27.7,22.64,50.23,50.46,50.23h47.85v-6.63h-47.85c-24.17,0-43.83-19.56-43.83-43.6Z"/><path class="cls-1" d="M423.6,33.39c-27.83,0-50.47,22.59-50.47,50.35s22.64,50.34,50.47,50.34,50.35-22.58,50.35-50.34-22.59-50.35-50.35-50.35Zm0,94.06c-24.17,0-43.83-19.61-43.83-43.71s19.66-43.71,43.83-43.71,43.71,19.61,43.71,43.71-19.61,43.71-43.71,43.71Z"/><path class="cls-1" d="M587.96,83.36c-.59-.61-1.17-1.22-1.76-1.83l-1.07-1.12h-48.04v6.76h44.37c-1.72,22.65-20.75,40.28-43.66,40.28-24.17,0-43.83-19.56-43.83-43.6s19.66-43.82,43.83-43.82h47.74v-6.64h-47.74c-27.83,0-50.47,22.64-50.47,50.46s22.64,50.23,50.47,50.23,50.35-22.53,50.35-50.23v-.29l-.2-.21Z"/></g></svg>