<?xml version="1.0" encoding="UTF-8"?><svg id="_レイヤー_1" xmlns="http://www.w3.org/2000/svg" xmlns:xlink="http://www.w3.org/1999/xlink" viewBox="0 0 789.83 126.81"><defs><style>.cls-1{fill:url(#_名称未設定グラデーション_2-2);}.cls-2{fill:#231815;}.cls-3{fill:url(#_名称未設定グラデーション_88);}.cls-4{fill:url(#_名称未設定グラデーション_2);}</style><linearGradient id="_名称未設定グラデーション_2" x1="-4.66" y1="121.16" x2="61.27" y2="55.23" gradientUnits="userSpaceOnUse"><stop offset="0" stop-color="#a51e43"/><stop offset="1" stop-color="#eb6ea5"/></linearGradient><linearGradient id="_名称未設定グラデーション_88" x1="721.74" y1="98.86" x2="800.83" y2="19.77" gradientUnits="userSpaceOnUse"><stop offset="0" stop-color="#9fa0a0"/><stop offset="1" stop-color="#dcdddd"/></linearGradient><linearGradient id="_名称未設定グラデーション_2-2" x1="660.03" y1="70.7" x2="712.76" y2="17.97" xlink:href="#_名称未設定グラデーション_2"/></defs><g><polygon class="cls-4" points="56.61 50.56 56.61 125.82 43.85 125.82 14.51 79.25 14.51 125.82 0 125.82 0 50.56 12.65 50.56 42.1 97.79 42.1 50.56 56.61 50.56"/><polygon class="cls-2" points="118.46 50.56 118.46 63.54 86.83 63.54 86.83 80.45 115.19 80.45 115.19 93.32 86.83 93.32 86.83 112.95 118.46 112.95 118.46 125.82 71.56 125.82 71.56 50.56 118.46 50.56"/><path class="cls-2" d="M168.53,73.91c-1.42-7.09-5.56-11.45-12.98-11.45-8.83,0-13.52,6-13.52,20.4v10.69c0,13.96,4.69,20.4,13.52,20.4,7.64,0,11.34-3.82,12.98-11.45h14.51c-2.51,16.91-12,24.32-27.49,24.32-16.91,0-28.8-10.25-28.8-33.27v-10.69c0-23.23,11.89-33.27,28.8-33.27,14.94,0,25.09,7.85,27.6,24.32h-14.61Z"/><polygon class="cls-2" points="246.06 50.56 246.06 63.54 225.34 63.54 225.34 125.82 210.06 125.82 210.06 63.54 189.34 63.54 189.34 50.56 246.06 50.56"/><path class="cls-2" d="M246.5,125.82l26.18-75.26h14.62l26.18,75.26h-16.25l-4.58-14.29h-25.2l-4.58,14.29h-16.36Zm24.98-27.16h17.02l-8.51-26.51-8.51,26.51Z"/><path class="cls-2" d="M361.58,125.82l-13.53-29.56h-12.22v29.56h-15.27V50.56h26.94c17.34,0,28.14,7.74,28.14,23.01,0,10.14-4.69,16.8-12.87,20.18l15.6,32.07h-16.8Zm-15.49-42.43c9.05,0,14.29-1.96,14.29-9.82s-5.24-10.03-14.29-10.03h-10.25v19.85h10.25Z"/><rect class="cls-2" x="388.96" y="50.56" width="15.27" height="75.26"/><polygon class="cls-2" points="470.33 50.56 470.33 63.54 449.6 63.54 449.6 125.82 434.33 125.82 434.33 63.54 413.61 63.54 413.61 50.56 470.33 50.56"/><rect class="cls-2" x="479.71" y="50.56" width="15.27" height="75.26"/><path class="cls-2" d="M537.41,126.81c-16.91,0-28.8-10.25-28.8-33.27v-10.69c0-23.23,11.89-33.27,28.8-33.27s28.91,10.03,28.91,33.27v10.69c0,23.01-11.89,33.27-28.91,33.27Zm-13.52-33.27c0,14.4,4.69,20.4,13.52,20.4s13.64-6,13.64-20.4v-10.69c0-14.4-4.8-20.4-13.64-20.4s-13.52,6-13.52,20.4v10.69Z"/><polygon class="cls-2" points="635.47 50.56 635.47 125.82 622.71 125.82 593.37 79.25 593.37 125.82 578.86 125.82 578.86 50.56 591.51 50.56 620.96 97.79 620.96 50.56 635.47 50.56"/></g><g><path class="cls-3" d="M789.83,76.83l-41.12,49-32.35-75.49L788.25,7.19l1.58,69.64Z"/><path class="cls-1" d="M667.37,32.67L694.78,0l21.57,50.33-47.93,28.76-1.05-46.42Z"/></g></svg>